<svg width="124" height="49" viewBox="0 0 124 49" fill="none" xmlns="http://www.w3.org/2000/svg">
<path d="M54.8679 35.2017C58.9895 35.2017 61.3691 32.0998 61.3691 28.0631C61.3691 24.0689 58.9895 20.967 54.8679 20.967C51.3836 20.967 48.3242 24.0689 48.3242 28.0631C48.3242 32.0998 51.3836 35.2017 54.8679 35.2017ZM43.7776 48.7565V16.8453H48.1967V20.7121C49.7264 17.9076 53.2532 16.8878 55.1228 16.8878C61.709 16.8878 65.7032 22.0293 65.7032 28.0631C65.7032 34.1394 61.709 39.3234 55.1228 39.3234C53.2107 39.3234 49.7264 38.1761 48.1967 35.4142V48.7565H43.7776ZM80.645 35.2017C84.7666 35.2017 87.1462 32.0998 87.1462 28.0631C87.1462 24.0689 84.7666 20.967 80.645 20.967C77.1607 20.967 74.1013 24.0689 74.1013 28.0631C74.1013 32.0998 77.1607 35.2017 80.645 35.2017ZM69.5547 48.7565V16.8453H73.9738V20.7121C75.5035 17.9076 79.0303 16.8878 80.8999 16.8878C87.4861 16.8878 91.4803 22.0293 91.4803 28.0631C91.4803 34.1394 87.4861 39.3234 80.8999 39.3234C78.9878 39.3234 75.5035 38.1761 73.9738 35.4142V48.7565H69.5547Z" fill="#215BFB"/>
<path d="M12.1676 20.3978C10.5142 19.5271 8.88874 19.4386 7.47232 19.6474C6.49843 19.8279 5.55241 20.2474 5.25798 21.327C5.16913 21.7163 5.13951 22.5871 5.64126 23.2171C5.84859 23.4879 6.1134 23.7569 6.46881 23.9375C6.8521 24.1481 7.17789 24.2383 8.12216 24.4472L9.65705 24.8064C13.7913 25.7657 15.4743 26.5462 16.4499 27.4771C17.7496 28.7673 18.6643 31.2274 17.8681 33.9564C17.3959 35.2466 16.1851 36.7156 14.6485 37.6766C13.7042 38.1261 12.4341 38.6659 11.3696 38.8163C8.8295 39.296 6.5263 38.8765 4.10464 37.6465C1.68297 36.3581 0.383285 34.2874 0 33.3582L4.07502 31.6486C4.25273 32.0981 4.81372 32.8786 6.08378 33.5688C7.85561 34.4697 9.00721 34.6484 10.779 34.2891C11.1919 34.1989 11.8714 33.99 12.5805 33.629C13.2007 33.2697 13.5544 32.8485 13.7025 32.4892C14.0265 31.9194 13.8209 31.1389 13.4359 30.7796C12.9934 30.3301 11.9602 29.969 8.79988 29.2806L7.14653 28.9213C5.90608 28.6505 4.93219 28.2912 4.07502 27.7514C3.13074 27.1515 2.42167 26.4612 2.24396 26.2205C0.944276 24.6578 0.412903 21.5978 1.06275 19.7377C1.97915 17.0369 4.54716 15.5379 6.76324 15.1468C8.68316 14.8459 11.5473 14.9362 14.1763 16.3166C15.652 17.0369 16.7461 17.9962 17.4255 19.0174L13.7025 21.5677C13.3784 21.1181 13.023 20.8173 12.1676 20.3978Z" fill="#215BFB"/>
<path d="M30.8163 39.0098C25.767 39.0098 21.4092 34.7948 21.4092 29.7183V16.303H26.0081V29.6605C26.0081 32.3905 27.9016 34.3798 30.8163 34.3798C33.7008 34.3798 35.6244 32.3905 35.6244 29.6605V16.303H40.2234V29.7201C40.2234 34.7948 35.8656 39.0098 30.8163 39.0098Z" fill="#215BFB"/>
<path d="M114.917 16.3032C119.792 16.3032 124 20.5182 124 25.5947L124 39.01L119.56 39.01L119.56 25.6525C119.56 22.9225 117.731 20.9332 114.917 20.9332C112.132 20.9332 110.275 22.9224 110.275 25.6525L110.275 39.01L105.835 39.01L105.835 25.5929C105.835 20.5182 110.042 16.3032 114.917 16.3032Z" fill="#215BFB"/>
<path d="M100.616 15.6545V39.0101H96.0742V15.6545H100.616Z" fill="#215BFB"/>
<path d="M93.8763 12.4398L98.6851 4.1108C99.2631 3.10969 100.763 3.30715 101.062 4.42374L101.844 7.34146C101.933 7.67386 102.15 7.95727 102.448 8.12933L104.831 9.50465C105.832 10.0826 105.634 11.5825 104.518 11.8817L95.3358 14.3419C94.2192 14.6411 93.2983 13.441 93.8763 12.4398Z" fill="#215BFB"/>
</svg>
