<svg width="202" height="156" viewBox="0 0 202 156" fill="none" xmlns="http://www.w3.org/2000/svg">
<path d="M126.344 118.621H75.6621V148.749H126.344V118.621Z" fill="#215BFB"/>
<path d="M75.6621 141.096L126.338 130.562V118.621H75.6621V141.096Z" fill="#1B2166"/>
<path d="M190.835 128.379H11.1645C4.99613 128.379 0 123.382 0 117.214V16.2866C0 10.1182 4.99613 5.12207 11.1645 5.12207H190.835C197.004 5.12207 202 10.1182 202 16.2866V117.214C202 123.382 197.004 128.379 190.835 128.379Z" fill="#E9EFFF"/>
<path d="M202 99.3619H0V16.2866C0 10.1182 4.99613 5.12207 11.1645 5.12207H190.835C197.004 5.12207 202 10.1182 202 16.2866V99.3619Z" fill="#215BFB"/>
<path d="M101 118.62C104.234 118.62 106.856 115.998 106.856 112.764C106.856 109.53 104.234 106.908 101 106.908C97.7663 106.908 95.1445 109.53 95.1445 112.764C95.1445 115.998 97.7663 118.62 101 118.62Z" stroke="#215BFB" stroke-width="0.558227" stroke-miterlimit="10"/>
<path d="M135.169 155.849H66.8311V154.029C66.8311 150.406 69.7673 147.47 73.3902 147.47H128.61C132.233 147.47 135.169 150.406 135.169 154.029V155.849Z" fill="#215BFB"/>
<rect x="75.3633" y="23.2094" width="54.9316" height="64.3101" rx="6.69897" fill="white" fill-opacity="0.4"/>
<circle cx="103.16" cy="55.33" r="12.728" fill="white"/>
<ellipse cx="103.293" cy="53.6064" rx="4.64043" ry="4.64043" fill="white"/>
<path d="M103.159 60.103C97.6436 60.103 95.5577 63.4618 95.2041 65.1412C96.309 66.1135 99.4468 68.0581 103.159 68.0581C106.871 68.0581 110.009 66.1135 111.114 65.1412C110.761 63.4618 108.675 60.103 103.159 60.103Z" fill="white"/>
<path d="M121.46 33.995L131.339 12.0626C132.649 9.15597 136.819 9.28327 137.948 12.2643L140.531 19.0819C140.867 19.9693 141.542 20.6868 142.408 21.0766L148.414 23.7822C151.321 25.0914 151.194 29.2613 148.213 30.3908L125.991 38.8106C123.01 39.9401 120.151 36.9016 121.46 33.995Z" fill="#181C49"/>
<path d="M102.75 51V60.5" stroke="#215BFB" stroke-width="2" stroke-linecap="round"/>
<path d="M107.5 55.75L98 55.75" stroke="#215BFB" stroke-width="2" stroke-linecap="round"/>
</svg>
