<svg width="202" height="151" viewBox="0 0 202 151" fill="none" xmlns="http://www.w3.org/2000/svg">
<path d="M126.344 113.621H75.6621V143.749H126.344V113.621Z" fill="#215BFB"/>
<path d="M75.6621 136.096L126.338 125.562V113.621H75.6621V136.096Z" fill="#1B2166"/>
<path d="M190.835 123.379H11.1645C4.99613 123.379 0 118.382 0 112.214V11.2866C0 5.1182 4.99613 0.12207 11.1645 0.12207H190.835C197.004 0.12207 202 5.1182 202 11.2866V112.214C202 118.382 197.004 123.379 190.835 123.379Z" fill="#E9EFFF"/>
<path d="M202 94.3619H0V11.2866C0 5.1182 4.99613 0.12207 11.1645 0.12207H190.835C197.004 0.12207 202 5.1182 202 11.2866V94.3619Z" fill="#215BFB"/>
<path d="M101 113.62C104.234 113.62 106.856 110.998 106.856 107.764C106.856 104.53 104.234 101.908 101 101.908C97.7663 101.908 95.1445 104.53 95.1445 107.764C95.1445 110.998 97.7663 113.62 101 113.62Z" stroke="#215BFB" stroke-width="0.558227" stroke-miterlimit="10"/>
<path d="M135.169 150.849H66.8311V149.029C66.8311 145.406 69.7673 142.47 73.3902 142.47H128.61C132.233 142.47 135.169 145.406 135.169 149.029V150.849Z" fill="#215BFB"/>
<rect x="75.3633" y="18.2095" width="54.9316" height="64.3101" rx="6.69897" fill="white" fill-opacity="0.4"/>
</svg>
